<svg width="161" height="38" viewBox="0 0 161 38" fill="none" xmlns="http://www.w3.org/2000/svg">
<path d="M51.6494 27.3265H59.8592V31H47.8089V11.5191H59.7201V15.1927H51.6494V19.3393H59.0243V22.9572H51.6494V27.3265ZM66.6851 27.3265H74.1157V31H62.8446V11.5191H66.6851V27.3265ZM88.3478 20.8978C90.0547 21.8811 90.9081 23.3654 90.9081 25.3506C90.9081 27.0018 90.3237 28.3562 89.1549 29.4137C87.986 30.4712 86.5481 31 84.8413 31H76.5758V11.5191H84.2568C85.9266 11.5191 87.3274 12.0386 88.4591 13.0776C89.6094 14.098 90.1846 15.406 90.1846 17.0016C90.1846 18.6157 89.5723 19.9145 88.3478 20.8978ZM84.2568 15.1092H80.4163V19.395H84.2568C84.8505 19.395 85.3422 19.1909 85.7318 18.7827C86.14 18.3746 86.3441 17.8643 86.3441 17.2521C86.3441 16.6398 86.1493 16.1296 85.7596 15.7214C85.37 15.3133 84.8691 15.1092 84.2568 15.1092ZM84.8413 27.41C85.4906 27.41 86.0287 27.1966 86.4554 26.7699C86.8821 26.3246 87.0955 25.768 87.0955 25.1001C87.0955 24.4507 86.8821 23.9127 86.4554 23.486C86.0287 23.0407 85.4906 22.818 84.8413 22.818H80.4163V27.41H84.8413ZM110.096 28.4675C108.129 30.4156 105.736 31.3896 102.916 31.3896C100.096 31.3896 97.7024 30.4156 95.7357 28.4675C93.7877 26.5009 92.8136 24.0982 92.8136 21.2596C92.8136 18.4209 93.7877 16.0276 95.7357 14.0795C97.7024 12.1128 100.096 11.1295 102.916 11.1295C105.736 11.1295 108.129 12.1128 110.096 14.0795C112.063 16.0276 113.046 18.4209 113.046 21.2596C113.046 24.0982 112.063 26.5009 110.096 28.4675ZM98.4352 25.8515C99.6412 27.0389 101.135 27.6326 102.916 27.6326C104.697 27.6326 106.19 27.0389 107.396 25.8515C108.602 24.6455 109.205 23.1149 109.205 21.2596C109.205 19.4043 108.602 17.8736 107.396 16.6677C106.19 15.4617 104.697 14.8587 102.916 14.8587C101.135 14.8587 99.6412 15.4617 98.4352 16.6677C97.2293 17.8736 96.6263 19.4043 96.6263 21.2596C96.6263 23.1149 97.2293 24.6455 98.4352 25.8515ZM123.76 11.5191C126.432 11.5191 128.658 12.4561 130.439 14.33C132.239 16.2038 133.139 18.5137 133.139 21.2596C133.139 24.0054 132.239 26.3153 130.439 28.1892C128.658 30.0631 126.432 31 123.76 31H116.023V11.5191H123.76ZM123.76 27.3265C125.448 27.3265 126.821 26.7699 127.879 25.6567C128.936 24.5249 129.465 23.0592 129.465 21.2596C129.465 19.4599 128.936 18.0035 127.879 16.8903C126.821 15.7586 125.448 15.1927 123.76 15.1927H119.864V27.3265H123.76ZM134.54 31V28.1335L141.192 21.2874C142.676 19.7289 143.418 18.4302 143.418 17.3912C143.418 16.6306 143.177 16.0183 142.694 15.5545C142.231 15.0906 141.628 14.8587 140.885 14.8587C139.42 14.8587 138.334 15.6194 137.629 17.1408L134.401 15.2483C135.013 13.9125 135.895 12.8921 137.045 12.1871C138.195 11.482 139.457 11.1295 140.83 11.1295C142.592 11.1295 144.104 11.6861 145.366 12.7993C146.628 13.894 147.258 15.3782 147.258 17.2521C147.258 19.2744 146.192 21.3523 144.058 23.486L140.245 27.2986H147.565V31H134.54ZM152.275 15.4153C151.681 15.4153 151.162 15.202 150.716 14.7752C150.29 14.33 150.076 13.8105 150.076 13.2168C150.076 12.6231 150.29 12.1036 150.716 11.6583C151.162 11.213 151.681 10.9904 152.275 10.9904C152.887 10.9904 153.407 11.213 153.833 11.6583C154.279 12.1036 154.501 12.6231 154.501 13.2168C154.501 13.8105 154.279 14.33 153.833 14.7752C153.407 15.202 152.887 15.4153 152.275 15.4153ZM150.494 31V17.0851H154.084V31H150.494Z" fill="white"/>
<rect x="2" y="2" width="33" height="32" rx="8" stroke="white" stroke-width="4"/>
<rect x="17" y="2" width="17.5714" height="17" rx="8" stroke="white" stroke-width="4"/>
</svg>
