<svg width="16" height="16" viewBox="0 0 16 16" fill="none" xmlns="http://www.w3.org/2000/svg">
<path d="M8.00033 2.44629C6.49208 2.44629 6.3028 2.45288 5.71042 2.47984C5.1192 2.50692 4.71564 2.60052 4.36253 2.73786C3.99726 2.87971 3.68742 3.06946 3.37874 3.37827C3.06982 3.68697 2.88007 3.99682 2.73777 4.36197C2.60008 4.71521 2.50637 5.1189 2.47976 5.70991C2.45326 6.30231 2.44632 6.49171 2.44632 8.00001C2.44632 9.50831 2.45303 9.69702 2.47987 10.2894C2.50706 10.8807 2.60066 11.2842 2.73788 11.6373C2.87984 12.0026 3.06959 12.3125 3.37839 12.6212C3.68696 12.9301 3.9968 13.1203 4.36183 13.2622C4.71518 13.3995 5.11885 13.4931 5.70996 13.5202C6.30234 13.5471 6.4915 13.5537 7.99964 13.5537C9.50801 13.5537 9.69671 13.5471 10.2891 13.5202C10.8803 13.4931 11.2843 13.3995 11.6377 13.2622C12.0028 13.1203 12.3122 12.9301 12.6208 12.6212C12.9297 12.3125 13.1194 12.0026 13.2617 11.6375C13.3983 11.2842 13.492 10.8805 13.5198 10.2895C13.5464 9.69713 13.5533 9.50831 13.5533 8.00001C13.5533 6.49171 13.5464 6.30242 13.5198 5.71002C13.492 5.11878 13.3983 4.71521 13.2617 4.36209C13.1194 3.99682 12.9297 3.68697 12.6208 3.37827C12.3119 3.06935 12.0029 2.87959 11.6373 2.73786C11.2833 2.60052 10.8795 2.50692 10.2883 2.47984C9.6959 2.45288 9.50731 2.44629 7.9986 2.44629H8.00033ZM7.50213 3.44712C7.65 3.44688 7.81498 3.44712 8.00033 3.44712C9.48313 3.44712 9.65888 3.45244 10.2444 3.47905C10.7859 3.50381 11.0798 3.59429 11.2755 3.67031C11.5347 3.77097 11.7195 3.8913 11.9137 4.08568C12.1081 4.28006 12.2284 4.46518 12.3293 4.72435C12.4053 4.91989 12.4959 5.21378 12.5206 5.75526C12.5472 6.34072 12.553 6.51659 12.553 7.99874C12.553 9.48088 12.5472 9.65675 12.5206 10.2422C12.4958 10.7837 12.4053 11.0776 12.3293 11.2731C12.2287 11.5323 12.1081 11.7168 11.9137 11.9111C11.7194 12.1055 11.5348 12.2258 11.2755 12.3265C11.08 12.4028 10.7859 12.4931 10.2444 12.5178C9.65899 12.5445 9.48313 12.5502 8.00033 12.5502C6.51742 12.5502 6.34167 12.5445 5.75624 12.5178C5.21476 12.4929 4.92089 12.4024 4.72501 12.3264C4.46585 12.2257 4.28073 12.1054 4.08635 11.911C3.89198 11.7166 3.77165 11.5319 3.67076 11.2727C3.59475 11.0771 3.50416 10.7832 3.47951 10.2417C3.4529 9.65629 3.44758 9.48042 3.44758 7.99735C3.44758 6.51427 3.4529 6.33933 3.47951 5.75388C3.50427 5.21239 3.59475 4.9185 3.67076 4.72274C3.77142 4.46356 3.89198 4.27844 4.08635 4.08406C4.28073 3.88968 4.46585 3.76935 4.72501 3.66845C4.92077 3.59209 5.21476 3.50184 5.75624 3.47697C6.26855 3.45383 6.46709 3.44688 7.50213 3.44573V3.44712ZM10.9648 4.36926C10.5968 4.36926 10.2983 4.66743 10.2983 5.03548C10.2983 5.40341 10.5968 5.70193 10.9648 5.70193C11.3327 5.70193 11.6312 5.40341 11.6312 5.03548C11.6312 4.66755 11.3327 4.36903 10.9648 4.36903V4.36926ZM8.00033 5.14794C6.42532 5.14794 5.14835 6.42495 5.14835 8.00001C5.14835 9.57507 6.42532 10.8515 8.00033 10.8515C9.57534 10.8515 10.8519 9.57507 10.8519 8.00001C10.8519 6.42495 9.57523 5.14794 8.00022 5.14794H8.00033ZM8.00033 6.14877C9.02265 6.14877 9.85152 6.97755 9.85152 8.00001C9.85152 9.02236 9.02265 9.85125 8.00033 9.85125C6.9779 9.85125 6.14915 9.02236 6.14915 8.00001C6.14915 6.97755 6.9779 6.14877 8.00033 6.14877Z" fill="#838888"/>
</svg>
