<svg width="16" height="16" viewBox="0 0 16 16" fill="none" xmlns="http://www.w3.org/2000/svg">
<path fill-rule="evenodd" clip-rule="evenodd" d="M12.2391 6.13933C12.2428 6.23472 12.2441 6.33007 12.2441 6.42547C12.2441 9.31758 10.2096 12.6563 6.48927 12.6563C5.34646 12.6563 4.2838 12.2921 3.38846 11.6721C3.54673 11.6894 3.70746 11.7024 3.87066 11.7024C4.81821 11.7024 5.69095 11.3512 6.38322 10.7615C5.49815 10.7485 4.7508 10.1111 4.49305 9.24386C4.61679 9.26988 4.74421 9.28293 4.87453 9.28293C5.05828 9.28293 5.23669 9.25694 5.4077 9.20491C4.48153 9.00545 3.78392 8.12093 3.78392 7.05861C3.78392 7.0456 3.78392 7.04124 3.78392 7.03257C4.05689 7.193 4.3693 7.29268 4.70105 7.30569C4.1576 6.91111 3.80036 6.23905 3.80036 5.48025C3.80036 5.08134 3.89984 4.70409 4.07496 4.37889C5.07226 5.7057 6.56327 6.57725 8.2442 6.66831C8.20967 6.50788 8.19199 6.33881 8.19199 6.16971C8.19199 4.95997 9.0976 3.98001 10.2149 3.98001C10.7966 3.98001 11.322 4.24454 11.6907 4.66947C12.1524 4.57408 12.5848 4.39198 12.9762 4.14049C12.8245 4.65214 12.5043 5.08132 12.0858 5.35015C12.4952 5.29812 12.8858 5.18113 13.2479 5.00769C12.9762 5.44563 12.6342 5.83147 12.2391 6.13933Z" fill="#848888"/>
</svg>
